<svg width="282" height="17" viewBox="0 0 282 17" fill="none" xmlns="http://www.w3.org/2000/svg">
<rect y="8" width="121" height="1" fill="#D9D9D9"/>
<path d="M142.951 8.90909C142.951 9.98295 142.757 10.911 142.369 11.6932C141.981 12.4754 141.449 13.0786 140.773 13.5028C140.097 13.9271 139.325 14.1392 138.456 14.1392C137.588 14.1392 136.816 13.9271 136.14 13.5028C135.464 13.0786 134.932 12.4754 134.544 11.6932C134.156 10.911 133.962 9.98295 133.962 8.90909C133.962 7.83523 134.156 6.9072 134.544 6.125C134.932 5.3428 135.464 4.73958 136.14 4.31534C136.816 3.8911 137.588 3.67898 138.456 3.67898C139.325 3.67898 140.097 3.8911 140.773 4.31534C141.449 4.73958 141.981 5.3428 142.369 6.125C142.757 6.9072 142.951 7.83523 142.951 8.90909ZM141.758 8.90909C141.758 8.02746 141.61 7.28338 141.315 6.67685C141.023 6.07031 140.627 5.61127 140.127 5.29972C139.63 4.98816 139.073 4.83239 138.456 4.83239C137.84 4.83239 137.282 4.98816 136.781 5.29972C136.284 5.61127 135.888 6.07031 135.593 6.67685C135.301 7.28338 135.155 8.02746 135.155 8.90909C135.155 9.79072 135.301 10.5348 135.593 11.1413C135.888 11.7479 136.284 12.2069 136.781 12.5185C137.282 12.83 137.84 12.9858 138.456 12.9858C139.073 12.9858 139.63 12.83 140.127 12.5185C140.627 12.2069 141.023 11.7479 141.315 11.1413C141.61 10.5348 141.758 9.79072 141.758 8.90909ZM144.865 14V6.36364H145.998V7.51705H146.078C146.217 7.1392 146.469 6.83262 146.834 6.5973C147.198 6.36198 147.609 6.24432 148.067 6.24432C148.153 6.24432 148.26 6.24597 148.39 6.24929C148.519 6.2526 148.617 6.25758 148.683 6.2642V7.45739C148.643 7.44744 148.552 7.43253 148.41 7.41264C148.27 7.38944 148.123 7.37784 147.967 7.37784C147.596 7.37784 147.265 7.45573 146.973 7.61151C146.684 7.76397 146.456 7.97609 146.287 8.24787C146.121 8.51634 146.038 8.82292 146.038 9.16761V14H144.865Z" fill="#E2E2E2"/>
<rect x="161" y="8" width="121" height="1" fill="#D9D9D9"/>
</svg>
