<svg width="24" height="24" viewBox="0 0 24 24" fill="none" xmlns="http://www.w3.org/2000/svg">
<path d="M24 12C24 5.37258 18.6274 0 12 0C5.37258 0 0 5.37258 0 12C0 18.6274 5.37258 24 12 24C18.6274 24 24 18.6274 24 12Z" fill="white"/>
<path fill-rule="evenodd" clip-rule="evenodd" d="M17.8724 12.1363C17.8724 11.7109 17.8343 11.3018 17.7633 10.9091H12.1124V13.23H15.3415C15.2024 13.98 14.7797 14.6154 14.1442 15.0409V16.5463H16.0833C17.2179 15.5018 17.8724 13.9636 17.8724 12.1363Z" fill="#4285F4"/>
<path fill-rule="evenodd" clip-rule="evenodd" d="M12.1123 18C13.7324 18 15.0905 17.4628 16.0833 16.5464L14.1442 15.0409C13.6069 15.4009 12.9196 15.6137 12.1123 15.6137C10.5496 15.6137 9.22689 14.5582 8.75507 13.14H6.75052V14.6946C7.73779 16.6555 9.76689 18 12.1123 18Z" fill="#34A853"/>
<path fill-rule="evenodd" clip-rule="evenodd" d="M8.75516 13.14C8.63516 12.78 8.56698 12.3954 8.56698 12C8.56698 11.6045 8.63516 11.22 8.75516 10.86V9.30542H6.75061C6.34425 10.1154 6.11243 11.0318 6.11243 12C6.11243 12.9682 6.34425 13.8845 6.75061 14.6945L8.75516 13.14Z" fill="#FBBC05"/>
<path fill-rule="evenodd" clip-rule="evenodd" d="M12.1123 8.38637C12.9933 8.38637 13.7842 8.6891 14.406 9.28364L16.1269 7.56273C15.0878 6.59455 13.7296 6 12.1123 6C9.76689 6 7.73779 7.34455 6.75052 9.30546L8.75507 10.86C9.22689 9.44183 10.5496 8.38637 12.1123 8.38637Z" fill="#EA4335"/>
</svg>
