<svg width="15" height="12" viewBox="0 0 15 12" fill="none" xmlns="http://www.w3.org/2000/svg">
<path fill-rule="evenodd" clip-rule="evenodd" d="M1.08504 6.33357C0.971652 6.12571 0.971652 5.87357 1.08504 5.66571C2.45153 3.16643 4.97576 1 7.5 1C10.0242 1 12.5485 3.16643 13.915 5.66643C14.0283 5.87429 14.0283 6.12643 13.915 6.33429C12.5485 8.83357 10.0242 11 7.5 11C4.97576 11 2.45153 8.83357 1.08504 6.33357Z" stroke="#828282" stroke-linecap="round" stroke-linejoin="round"/>
<path fill-rule="evenodd" clip-rule="evenodd" d="M9.03212 4.4847C9.87827 5.32153 9.87827 6.67832 9.03212 7.51515C8.18596 8.35199 6.81406 8.35199 5.9679 7.51515C5.12175 6.67832 5.12175 5.32153 5.9679 4.4847C6.81406 3.64786 8.18596 3.64786 9.03212 4.4847Z" stroke="#828282" stroke-linecap="round" stroke-linejoin="round"/>
</svg>
